<mxfile host="65bd71144e">
    <diagram id="Yrl09pworYq30OoW7dOR" name="第 1 页">
        <mxGraphModel dx="1897" dy="825" grid="1" gridSize="10" guides="1" tooltips="1" connect="1" arrows="1" fold="1" page="1" pageScale="1" pageWidth="827" pageHeight="1169" math="1" shadow="0" adaptiveColors="auto">
            <root>
                <mxCell id="0"/>
                <mxCell id="1" parent="0"/>
                <mxCell id="175" value="" style="rounded=1;whiteSpace=wrap;html=1;" vertex="1" parent="1">
                    <mxGeometry x="259" y="2620" width="916" height="680" as="geometry"/>
                </mxCell>
                <mxCell id="172" style="edgeStyle=none;html=1;exitX=0.5;exitY=1;exitDx=0;exitDy=0;" edge="1" parent="1">
                    <mxGeometry relative="1" as="geometry">
                        <mxPoint x="578" y="3100" as="targetPoint"/>
                        <mxPoint x="1018.5" y="3062.5" as="sourcePoint"/>
                        <Array as="points">
                            <mxPoint x="578" y="3240"/>
                        </Array>
                    </mxGeometry>
                </mxCell>
                <mxCell id="169" value="" style="rounded=1;whiteSpace=wrap;html=1;" vertex="1" parent="1">
                    <mxGeometry x="875.5" y="2927.5" width="250" height="135" as="geometry"/>
                </mxCell>
                <mxCell id="162" value="" style="rounded=0;whiteSpace=wrap;html=1;" vertex="1" parent="1">
                    <mxGeometry x="399" y="2880" width="360" height="220" as="geometry"/>
                </mxCell>
                <mxCell id="153" value="" style="rounded=0;whiteSpace=wrap;html=1;" parent="1" vertex="1">
                    <mxGeometry x="-35" y="1760" width="1125" height="730" as="geometry"/>
                </mxCell>
                <mxCell id="143" style="edgeStyle=none;html=1;entryX=1;entryY=0.5;entryDx=0;entryDy=0;" parent="1" target="123" edge="1">
                    <mxGeometry relative="1" as="geometry">
                        <mxPoint x="811" y="2260" as="sourcePoint"/>
                        <mxPoint x="607.9999999999999" y="2375" as="targetPoint"/>
                        <Array as="points">
                            <mxPoint x="811" y="2375"/>
                        </Array>
                    </mxGeometry>
                </mxCell>
                <mxCell id="137" value="" style="rounded=1;whiteSpace=wrap;html=1;" parent="1" vertex="1">
                    <mxGeometry x="600" y="2190" width="420" height="70" as="geometry"/>
                </mxCell>
                <mxCell id="113" value="" style="rounded=0;whiteSpace=wrap;html=1;" parent="1" vertex="1">
                    <mxGeometry x="-80" y="960" width="810" height="540" as="geometry"/>
                </mxCell>
                <mxCell id="37" style="edgeStyle=none;html=1;entryX=0.5;entryY=0;entryDx=0;entryDy=0;" parent="1" source="3" target="5" edge="1">
                    <mxGeometry relative="1" as="geometry"/>
                </mxCell>
                <mxCell id="3" value="&lt;font data-font-src=&quot;https://fonts.googleapis.com/css?family=ZCOOL+KuaiLe&quot; face=&quot;ZCOOL KuaiLe&quot;&gt;I play basketball every day!&lt;/font&gt;" style="text;html=1;align=center;verticalAlign=middle;whiteSpace=wrap;rounded=0;" parent="1" vertex="1">
                    <mxGeometry x="145" y="380" width="400" height="30" as="geometry"/>
                </mxCell>
                <mxCell id="5" value="&lt;font data-font-src=&quot;https://fonts.googleapis.com/css?family=ZCOOL+KuaiLe&quot; face=&quot;ZCOOL KuaiLe&quot;&gt;[CLS] I play basket ##ball every day ! [SEP] 一共有9个token&lt;/font&gt;" style="text;html=1;align=center;verticalAlign=middle;whiteSpace=wrap;rounded=0;" parent="1" vertex="1">
                    <mxGeometry x="130" y="460" width="430" height="30" as="geometry"/>
                </mxCell>
                <mxCell id="8" value="&lt;font face=&quot;ZCOOL KuaiLe&quot;&gt;Word Piece分词结果&lt;/font&gt;" style="text;html=1;align=center;verticalAlign=middle;whiteSpace=wrap;rounded=0;" parent="1" vertex="1">
                    <mxGeometry x="360" y="420" width="120" height="30" as="geometry"/>
                </mxCell>
                <mxCell id="39" style="edgeStyle=none;html=1;" parent="1" source="11" edge="1">
                    <mxGeometry relative="1" as="geometry">
                        <mxPoint x="340" y="610" as="targetPoint"/>
                    </mxGeometry>
                </mxCell>
                <mxCell id="11" value="&lt;font data-font-src=&quot;https://fonts.googleapis.com/css?family=ZCOOL+KuaiLe&quot; face=&quot;ZCOOL KuaiLe&quot;&gt;Token Embedding&lt;/font&gt;" style="rounded=1;whiteSpace=wrap;html=1;" parent="1" vertex="1">
                    <mxGeometry x="280" y="520" width="120" height="60" as="geometry"/>
                </mxCell>
                <mxCell id="112" value="" style="edgeStyle=none;html=1;" parent="1" source="12" target="13" edge="1">
                    <mxGeometry relative="1" as="geometry"/>
                </mxCell>
                <mxCell id="12" value="" style="shape=curlyBracket;whiteSpace=wrap;html=1;rounded=1;flipH=1;labelPosition=right;verticalLabelPosition=middle;align=left;verticalAlign=middle;" parent="1" vertex="1">
                    <mxGeometry x="414" y="520" width="20" height="60" as="geometry"/>
                </mxCell>
                <mxCell id="13" value="&lt;font face=&quot;ZCOOL KuaiLe&quot;&gt;&lt;b&gt;tokenizer词表映射&lt;/b&gt;&lt;/font&gt;" style="text;html=1;align=center;verticalAlign=middle;whiteSpace=wrap;rounded=0;" parent="1" vertex="1">
                    <mxGeometry x="440" y="535" width="106" height="30" as="geometry"/>
                </mxCell>
                <mxCell id="20" value="" style="shape=cube;whiteSpace=wrap;html=1;boundedLbl=1;backgroundOutline=1;darkOpacity=0.05;darkOpacity2=0.1;direction=west;rotation=-90;size=80;fillColor=default;gradientColor=none;" parent="1" vertex="1">
                    <mxGeometry x="280" y="500" width="130" height="360" as="geometry"/>
                </mxCell>
                <mxCell id="24" value="&lt;span style=&quot;color: rgb(0, 0, 0);&quot;&gt;&lt;font data-font-src=&quot;https://fonts.googleapis.com/css?family=ZCOOL+KuaiLe&quot; face=&quot;ZCOOL KuaiLe&quot;&gt;[CLS] I play basket ##ball every day ![SEP]&lt;/font&gt;&lt;/span&gt;" style="text;html=1;align=center;verticalAlign=middle;whiteSpace=wrap;rounded=0;" parent="1" vertex="1">
                    <mxGeometry x="160" y="710" width="290" height="30" as="geometry"/>
                </mxCell>
                <mxCell id="30" value="" style="shape=curlyBracket;whiteSpace=wrap;html=1;rounded=1;flipH=1;labelPosition=right;verticalLabelPosition=middle;align=left;verticalAlign=middle;rotation=90;" parent="1" vertex="1">
                    <mxGeometry x="290" y="640" width="30" height="280" as="geometry"/>
                </mxCell>
                <mxCell id="32" value="&lt;font data-font-src=&quot;https://fonts.googleapis.com/css?family=ZCOOL+KuaiLe&quot; face=&quot;ZCOOL KuaiLe&quot;&gt;9个token长度&lt;/font&gt;" style="text;html=1;align=center;verticalAlign=middle;whiteSpace=wrap;rounded=0;" parent="1" vertex="1">
                    <mxGeometry x="250" y="800" width="110" height="30" as="geometry"/>
                </mxCell>
                <mxCell id="33" value="" style="shape=curlyBracket;whiteSpace=wrap;html=1;rounded=1;flipH=1;labelPosition=right;verticalLabelPosition=middle;align=left;verticalAlign=middle;flipV=0;rotation=45;" parent="1" vertex="1">
                    <mxGeometry x="515" y="650" width="30" height="130" as="geometry"/>
                </mxCell>
                <mxCell id="34" value="&lt;font data-font-src=&quot;https://fonts.googleapis.com/css?family=ZCOOL+KuaiLe&quot; face=&quot;ZCOOL KuaiLe&quot;&gt;hidden_dim=768&lt;/font&gt;" style="text;html=1;align=center;verticalAlign=middle;whiteSpace=wrap;rounded=0;" parent="1" vertex="1">
                    <mxGeometry x="545" y="715" width="105" height="20" as="geometry"/>
                </mxCell>
                <mxCell id="35" value="&lt;font data-font-src=&quot;https://fonts.googleapis.com/css?family=ZCOOL+KuaiLe&quot; face=&quot;ZCOOL KuaiLe&quot;&gt;(Batch_Size, N_len, hidden_dim)&lt;/font&gt;" style="text;html=1;align=center;verticalAlign=middle;whiteSpace=wrap;rounded=0;" parent="1" vertex="1">
                    <mxGeometry x="414" y="800" width="196" height="30" as="geometry"/>
                </mxCell>
                <mxCell id="38" style="edgeStyle=none;html=1;entryX=0.55;entryY=0.04;entryDx=0;entryDy=0;entryPerimeter=0;" parent="1" source="5" target="11" edge="1">
                    <mxGeometry relative="1" as="geometry"/>
                </mxCell>
                <mxCell id="43" value="&lt;font data-font-src=&quot;https://fonts.googleapis.com/css?family=ZCOOL+KuaiLe&quot; face=&quot;ZCOOL KuaiLe&quot;&gt;[CLS] I play basket ##ball every day ! [SEP]&amp;nbsp;&lt;span style=&quot;color: rgb(63, 63, 63);&quot;&gt;&lt;span style=&quot;color: rgb(63, 63, 63);&quot;&gt;I&amp;nbsp; like eat noodles&lt;/span&gt;&amp;nbsp;[SEP]&amp;nbsp;&lt;/span&gt;&lt;/font&gt;&lt;div&gt;&lt;br&gt;&lt;/div&gt;" style="text;html=1;align=center;verticalAlign=middle;whiteSpace=wrap;rounded=0;" parent="1" vertex="1">
                    <mxGeometry x="160" y="1124" width="410" height="41" as="geometry"/>
                </mxCell>
                <mxCell id="46" value="&lt;font data-font-src=&quot;https://fonts.googleapis.com/css?family=ZCOOL+KuaiLe&quot; face=&quot;ZCOOL KuaiLe&quot;&gt;Segment Embedding&lt;/font&gt;" style="rounded=1;whiteSpace=wrap;html=1;" parent="1" vertex="1">
                    <mxGeometry x="299" y="1210" width="120" height="60" as="geometry"/>
                </mxCell>
                <mxCell id="49" value="" style="shape=cube;whiteSpace=wrap;html=1;boundedLbl=1;backgroundOutline=1;darkOpacity=0.05;darkOpacity2=0.1;direction=west;rotation=-90;size=80;fillColor=default;gradientColor=none;" parent="1" vertex="1">
                    <mxGeometry x="289" y="1230" width="116" height="250" as="geometry"/>
                </mxCell>
                <mxCell id="50" value="&lt;font face=&quot;ZCOOL KuaiLe&quot;&gt;0 0 0 0 0 0 0 0 0 1 1 1 1 1&lt;/font&gt;" style="text;html=1;align=center;verticalAlign=middle;whiteSpace=wrap;rounded=0;" parent="1" vertex="1">
                    <mxGeometry x="229" y="1380" width="155" height="30" as="geometry"/>
                </mxCell>
                <mxCell id="51" value="" style="shape=curlyBracket;whiteSpace=wrap;html=1;rounded=1;flipH=1;labelPosition=right;verticalLabelPosition=middle;align=left;verticalAlign=middle;rotation=90;" parent="1" vertex="1">
                    <mxGeometry x="291.5" y="1355" width="30" height="160" as="geometry"/>
                </mxCell>
                <mxCell id="52" value="&lt;font data-font-src=&quot;https://fonts.googleapis.com/css?family=ZCOOL+KuaiLe&quot; face=&quot;ZCOOL KuaiLe&quot;&gt;14个token长度&lt;/font&gt;" style="text;html=1;align=center;verticalAlign=middle;whiteSpace=wrap;rounded=0;" parent="1" vertex="1">
                    <mxGeometry x="259" y="1450" width="110" height="30" as="geometry"/>
                </mxCell>
                <mxCell id="53" value="" style="shape=curlyBracket;whiteSpace=wrap;html=1;rounded=1;flipH=1;labelPosition=right;verticalLabelPosition=middle;align=left;verticalAlign=middle;flipV=0;rotation=45;" parent="1" vertex="1">
                    <mxGeometry x="443" y="1331.04" width="30" height="117.07" as="geometry"/>
                </mxCell>
                <mxCell id="54" value="&lt;font data-font-src=&quot;https://fonts.googleapis.com/css?family=ZCOOL+KuaiLe&quot; face=&quot;ZCOOL KuaiLe&quot;&gt;hidden_dim=768&lt;/font&gt;" style="text;html=1;align=center;verticalAlign=middle;whiteSpace=wrap;rounded=0;" parent="1" vertex="1">
                    <mxGeometry x="473.00000000000006" y="1390" width="105" height="20" as="geometry"/>
                </mxCell>
                <mxCell id="55" value="&lt;font data-font-src=&quot;https://fonts.googleapis.com/css?family=ZCOOL+KuaiLe&quot; face=&quot;ZCOOL KuaiLe&quot;&gt;(Batch_Size, N_len, hidden_dim)&lt;/font&gt;" style="text;html=1;align=center;verticalAlign=middle;whiteSpace=wrap;rounded=0;" parent="1" vertex="1">
                    <mxGeometry x="401" y="1448.11" width="196" height="30" as="geometry"/>
                </mxCell>
                <mxCell id="60" value="&lt;font data-font-src=&quot;https://fonts.googleapis.com/css?family=ZCOOL+KuaiLe&quot; face=&quot;ZCOOL KuaiLe&quot;&gt;Inputs1&lt;/font&gt;" style="text;html=1;align=center;verticalAlign=middle;whiteSpace=wrap;rounded=0;" parent="1" vertex="1">
                    <mxGeometry x="145" y="1000" width="190" height="30" as="geometry"/>
                </mxCell>
                <mxCell id="61" value="&lt;font face=&quot;ZCOOL KuaiLe&quot;&gt;Inputs2&lt;/font&gt;" style="text;html=1;align=center;verticalAlign=middle;whiteSpace=wrap;rounded=0;" parent="1" vertex="1">
                    <mxGeometry x="420.5" y="1000" width="190" height="30" as="geometry"/>
                </mxCell>
                <mxCell id="63" value="&lt;span style=&quot;color: rgb(63, 63, 63); font-family: &amp;quot;ZCOOL KuaiLe&amp;quot;;&quot;&gt;I play basketball every day!&lt;/span&gt;" style="rounded=1;whiteSpace=wrap;html=1;" parent="1" vertex="1">
                    <mxGeometry x="171" y="1030" width="160" height="60" as="geometry"/>
                </mxCell>
                <mxCell id="64" value="&lt;span style=&quot;color: rgb(63, 63, 63); font-family: &amp;quot;ZCOOL KuaiLe&amp;quot;;&quot;&gt;I&amp;nbsp; like eat noodles&lt;/span&gt;" style="rounded=1;whiteSpace=wrap;html=1;" parent="1" vertex="1">
                    <mxGeometry x="410" y="1030" width="160" height="60" as="geometry"/>
                </mxCell>
                <mxCell id="105" value="" style="shape=curlyBracket;whiteSpace=wrap;html=1;rounded=1;flipH=1;labelPosition=right;verticalLabelPosition=middle;align=left;verticalAlign=middle;direction=south;" parent="1" vertex="1">
                    <mxGeometry x="174" y="1149" width="246" height="20" as="geometry"/>
                </mxCell>
                <mxCell id="106" value="" style="shape=curlyBracket;whiteSpace=wrap;html=1;rounded=1;flipH=1;labelPosition=right;verticalLabelPosition=middle;align=left;verticalAlign=middle;direction=south;" parent="1" vertex="1">
                    <mxGeometry x="422" y="1149" width="138" height="20" as="geometry"/>
                </mxCell>
                <mxCell id="107" value="&lt;font style=&quot;font-size: 16px;&quot; data-font-src=&quot;https://fonts.googleapis.com/css?family=ZCOOL+KuaiLe&quot; face=&quot;ZCOOL KuaiLe&quot;&gt;&lt;b style=&quot;&quot;&gt;0&lt;/b&gt;&lt;/font&gt;" style="text;html=1;align=center;verticalAlign=middle;whiteSpace=wrap;rounded=0;" parent="1" vertex="1">
                    <mxGeometry x="267" y="1160" width="60" height="30" as="geometry"/>
                </mxCell>
                <mxCell id="108" value="&lt;font style=&quot;font-size: 16px;&quot; data-font-src=&quot;https://fonts.googleapis.com/css?family=ZCOOL+KuaiLe&quot; face=&quot;ZCOOL KuaiLe&quot;&gt;&lt;b style=&quot;&quot;&gt;1&lt;/b&gt;&lt;/font&gt;" style="text;html=1;align=center;verticalAlign=middle;whiteSpace=wrap;rounded=0;" parent="1" vertex="1">
                    <mxGeometry x="461" y="1165" width="60" height="20" as="geometry"/>
                </mxCell>
                <mxCell id="109" value="&lt;span style=&quot;color: rgb(63, 63, 63); font-family: &amp;quot;ZCOOL KuaiLe&amp;quot;; font-size: 12px; font-style: normal; font-variant-ligatures: normal; font-variant-caps: normal; font-weight: 400; letter-spacing: normal; orphans: 2; text-align: center; text-indent: 0px; text-transform: none; widows: 2; word-spacing: 0px; -webkit-text-stroke-width: 0px; white-space: normal; background-color: rgb(251, 251, 251); text-decoration-thickness: initial; text-decoration-style: initial; text-decoration-color: initial; display: inline !important; float: none;&quot;&gt;一共有14个token&lt;/span&gt;" style="text;whiteSpace=wrap;html=1;" parent="1" vertex="1">
                    <mxGeometry x="320.5" y="1090" width="95" height="25" as="geometry"/>
                </mxCell>
                <mxCell id="110" value="" style="shape=curlyBracket;whiteSpace=wrap;html=1;rounded=1;flipH=1;labelPosition=right;verticalLabelPosition=middle;align=left;verticalAlign=middle;" parent="1" vertex="1">
                    <mxGeometry x="429" y="1210" width="20" height="60" as="geometry"/>
                </mxCell>
                <mxCell id="111" value="&lt;font data-font-src=&quot;https://fonts.googleapis.com/css?family=ZCOOL+KuaiLe&quot; face=&quot;ZCOOL KuaiLe&quot;&gt;&lt;b&gt;0, 1二维映射&lt;/b&gt;&lt;/font&gt;" style="text;html=1;align=center;verticalAlign=middle;whiteSpace=wrap;rounded=0;" parent="1" vertex="1">
                    <mxGeometry x="451" y="1220" width="80" height="30" as="geometry"/>
                </mxCell>
                <mxCell id="114" style="edgeStyle=none;html=1;entryX=0.022;entryY=0.447;entryDx=0;entryDy=0;entryPerimeter=0;" parent="1" source="46" target="49" edge="1">
                    <mxGeometry relative="1" as="geometry"/>
                </mxCell>
                <mxCell id="117" style="edgeStyle=none;html=1;" parent="1" source="115" target="116" edge="1">
                    <mxGeometry relative="1" as="geometry"/>
                </mxCell>
                <mxCell id="115" value="&lt;pre style=&quot;margin-top: 0px; margin-bottom: 0px; overflow-wrap: initial; background-image: initial; background-position: initial; background-size: initial; background-repeat: initial; background-attachment: initial; background-origin: initial; background-clip: initial; border-radius: 4px; overflow: auto; padding: calc(0.888889em); word-break: initial; text-align: start; color: rgb(232, 230, 227);&quot;&gt;&lt;font face=&quot;courier&quot; style=&quot;font-size: 14px;&quot;&gt;&lt;b style=&quot;&quot;&gt;(&quot;hug&quot;，10)，(&quot;pug&quot;，5)，(&quot;bun&quot;，4)，(&quot;hugs&quot;，5)&lt;/b&gt;&lt;/font&gt;&lt;/pre&gt;" style="rounded=1;whiteSpace=wrap;html=1;" parent="1" vertex="1">
                    <mxGeometry x="211" y="1850" width="405.25" height="70" as="geometry"/>
                </mxCell>
                <mxCell id="121" style="edgeStyle=none;html=1;" parent="1" source="116" target="120" edge="1">
                    <mxGeometry relative="1" as="geometry"/>
                </mxCell>
                <mxCell id="116" value="&lt;pre style=&quot;margin-top: 0px; margin-bottom: 0px; overflow-wrap: initial; background-image: initial; background-position: initial; background-size: initial; background-repeat: initial; background-attachment: initial; background-origin: initial; background-clip: initial; border-radius: 4px; overflow: auto; padding: calc(0.888889em); word-break: initial; text-align: start; color: rgb(232, 230, 227);&quot;&gt;&lt;font face=&quot;courier&quot; style=&quot;font-size: 14px;&quot;&gt;&lt;b&gt;(&quot;h&quot; &quot;##u&quot; &quot;##g&quot;, 10), (&quot;p&quot; &quot;##u&quot; &quot;##g&quot;, 5), (&quot;b&quot; &quot;##u&quot; &quot;##n&quot;, 4), (&quot;h&quot; &quot;##u&quot; &quot;##g&quot; &quot;##s&quot;, 5)&lt;/b&gt;&lt;/font&gt;&lt;/pre&gt;" style="rounded=1;whiteSpace=wrap;html=1;" parent="1" vertex="1">
                    <mxGeometry x="21.5" y="1990" width="781.75" height="70" as="geometry"/>
                </mxCell>
                <mxCell id="118" value="&lt;font style=&quot;font-size: 14px;&quot; data-font-src=&quot;https://fonts.googleapis.com/css?family=ZCOOL+KuaiLe&quot; face=&quot;ZCOOL KuaiLe&quot;&gt;&lt;b style=&quot;&quot;&gt;拆分为带前缀格式&lt;/b&gt;&lt;/font&gt;" style="text;html=1;align=center;verticalAlign=middle;whiteSpace=wrap;rounded=0;" parent="1" vertex="1">
                    <mxGeometry x="414" y="1950" width="122" height="30" as="geometry"/>
                </mxCell>
                <mxCell id="120" value="&lt;pre style=&quot;margin-top: 0px; margin-bottom: 0px; overflow-wrap: initial; background-image: initial; background-position: initial; background-size: initial; background-repeat: initial; background-attachment: initial; background-origin: initial; background-clip: initial; border-radius: 4px; overflow: auto; padding: calc(0.888889em); word-break: initial; text-align: start; color: rgb(232, 230, 227);&quot;&gt;&lt;font face=&quot;courier&quot;&gt;&lt;span style=&quot;font-size: 14px;&quot;&gt;&lt;b&gt;&quot;b&quot;, &quot;h&quot;, &quot;p&quot;, &quot;##g&quot;, &quot;##n&quot;, &quot;##s&quot;, &quot;##u&quot;&lt;/b&gt;&lt;/span&gt;&lt;/font&gt;&lt;/pre&gt;" style="rounded=1;whiteSpace=wrap;html=1;" parent="1" vertex="1">
                    <mxGeometry x="233.38" y="2110" width="358" height="70" as="geometry"/>
                </mxCell>
                <mxCell id="122" value="&lt;font style=&quot;font-size: 14px;&quot; data-font-src=&quot;https://fonts.googleapis.com/css?family=ZCOOL+KuaiLe&quot; face=&quot;ZCOOL KuaiLe&quot;&gt;&lt;b style=&quot;&quot;&gt;去重获取初始词表&lt;/b&gt;&lt;/font&gt;" style="text;html=1;align=center;verticalAlign=middle;whiteSpace=wrap;rounded=0;" parent="1" vertex="1">
                    <mxGeometry x="415.5" y="2070" width="122" height="30" as="geometry"/>
                </mxCell>
                <mxCell id="123" value="&lt;pre style=&quot;margin-top: 0px; margin-bottom: 0px; overflow-wrap: initial; background-image: initial; background-position: initial; background-size: initial; background-repeat: initial; background-attachment: initial; background-origin: initial; background-clip: initial; border-radius: 4px; overflow: auto; padding: calc(0.888889em); word-break: initial; text-align: start; color: rgb(232, 230, 227);&quot;&gt;&lt;font face=&quot;courier&quot;&gt;&lt;span style=&quot;font-size: 14px;&quot;&gt;&lt;b&gt;&quot;b&quot;, &quot;h&quot;, &quot;p&quot;, &quot;##g&quot;, &quot;##n&quot;, &quot;##s&quot;, &quot;##u&quot;，...&lt;/b&gt;&lt;/span&gt;&lt;/font&gt;&lt;/pre&gt;" style="rounded=1;whiteSpace=wrap;html=1;" parent="1" vertex="1">
                    <mxGeometry x="210.38" y="2340" width="391.37" height="70" as="geometry"/>
                </mxCell>
                <mxCell id="135" value="$$I(X,Y) = \log \frac{P(X,Y)}{P(X)P(Y)} = \log(P(X,Y)) - \log(P(X)) - \log(P(Y))$$" style="text;html=1;align=center;verticalAlign=middle;whiteSpace=wrap;rounded=0;" parent="1" vertex="1">
                    <mxGeometry x="591.38" y="2200" width="440" height="70" as="geometry"/>
                </mxCell>
                <mxCell id="136" value="&lt;font style=&quot;font-size: 14px;&quot; face=&quot;ZCOOL KuaiLe&quot;&gt;&lt;b style=&quot;&quot;&gt;互信息计算&lt;/b&gt;&lt;/font&gt;" style="text;html=1;align=center;verticalAlign=middle;whiteSpace=wrap;rounded=0;" parent="1" vertex="1">
                    <mxGeometry x="591.38" y="2180" width="90" height="50" as="geometry"/>
                </mxCell>
                <mxCell id="142" style="edgeStyle=none;html=1;entryX=0.096;entryY=1.04;entryDx=0;entryDy=0;entryPerimeter=0;" parent="1" target="136" edge="1">
                    <mxGeometry relative="1" as="geometry">
                        <mxPoint x="412" y="2180" as="sourcePoint"/>
                        <Array as="points">
                            <mxPoint x="412" y="2232"/>
                        </Array>
                    </mxGeometry>
                </mxCell>
                <mxCell id="147" style="edgeStyle=none;html=1;entryX=0.096;entryY=1.04;entryDx=0;entryDy=0;entryPerimeter=0;exitX=0.5;exitY=0;exitDx=0;exitDy=0;" parent="1" source="123" target="136" edge="1">
                    <mxGeometry relative="1" as="geometry">
                        <Array as="points">
                            <mxPoint x="450" y="2232"/>
                        </Array>
                    </mxGeometry>
                </mxCell>
                <mxCell id="149" value="&lt;font style=&quot;font-size: 14px;&quot; data-font-src=&quot;https://fonts.googleapis.com/css?family=ZCOOL+KuaiLe&quot; face=&quot;ZCOOL KuaiLe&quot;&gt;&lt;b style=&quot;&quot;&gt;迭代生成最终词表&lt;/b&gt;&lt;/font&gt;" style="text;html=1;align=center;verticalAlign=middle;whiteSpace=wrap;rounded=0;" parent="1" vertex="1">
                    <mxGeometry x="458.25" y="2280" width="143.5" height="30" as="geometry"/>
                </mxCell>
                <mxCell id="151" value="&lt;font face=&quot;仿宋&quot; style=&quot;font-size: 18px;&quot;&gt;&lt;b style=&quot;&quot;&gt;WordPiece计算&lt;/b&gt;&lt;/font&gt;" style="text;html=1;align=center;verticalAlign=middle;whiteSpace=wrap;rounded=0;" parent="1" vertex="1">
                    <mxGeometry x="21.5" y="1790" width="160" height="50" as="geometry"/>
                </mxCell>
                <mxCell id="156" style="edgeStyle=none;html=1;entryX=0.5;entryY=0;entryDx=0;entryDy=0;" edge="1" parent="1" source="154" target="155">
                    <mxGeometry relative="1" as="geometry"/>
                </mxCell>
                <mxCell id="154" value="&lt;div style=&quot;text-align: start;&quot;&gt;&lt;span style=&quot;background-color: transparent;&quot;&gt;&lt;font face=&quot;courier&quot; size=&quot;3&quot; color=&quot;#e8e6e3&quot;&gt;&lt;b style=&quot;&quot;&gt;old:7,older:3,finest:9,lowest:4&lt;/b&gt;&lt;/font&gt;&lt;/span&gt;&lt;/div&gt;" style="rounded=1;whiteSpace=wrap;html=1;" vertex="1" parent="1">
                    <mxGeometry x="400" y="2720" width="320" height="40" as="geometry"/>
                </mxCell>
                <mxCell id="163" style="edgeStyle=none;html=1;entryX=0.5;entryY=0;entryDx=0;entryDy=0;" edge="1" parent="1" source="155" target="160">
                    <mxGeometry relative="1" as="geometry"/>
                </mxCell>
                <mxCell id="155" value="&lt;div style=&quot;text-align: start;&quot;&gt;&lt;font size=&quot;3&quot; face=&quot;courier&quot; color=&quot;#e8e6e3&quot;&gt;&lt;b&gt;old&amp;lt;/w&amp;gt;:7,older&amp;lt;/w&amp;gt;:3,finest&amp;lt;/w&amp;gt;:9,lowest&amp;lt;/w&amp;gt;:4&lt;/b&gt;&lt;/font&gt;&lt;/div&gt;" style="rounded=1;whiteSpace=wrap;html=1;" vertex="1" parent="1">
                    <mxGeometry x="331" y="2800" width="460" height="40" as="geometry"/>
                </mxCell>
                <mxCell id="157" value="&lt;font style=&quot;font-size: 14px;&quot; face=&quot;ZCOOL KuaiLe&quot;&gt;&lt;b style=&quot;&quot;&gt;&lt;font style=&quot;&quot; data-font-src=&quot;https://fonts.googleapis.com/css?family=ZCOOL+KuaiLe&quot;&gt;添加&lt;/font&gt;end point&lt;/b&gt;&lt;/font&gt;" style="text;html=1;align=center;verticalAlign=middle;whiteSpace=wrap;rounded=0;" vertex="1" parent="1">
                    <mxGeometry x="560" y="2770" width="100" height="30" as="geometry"/>
                </mxCell>
                <mxCell id="170" style="edgeStyle=none;html=1;entryX=0;entryY=0.5;entryDx=0;entryDy=0;" edge="1" parent="1" source="160" target="169">
                    <mxGeometry relative="1" as="geometry"/>
                </mxCell>
                <mxCell id="160" value="&lt;div&gt;&lt;span style=&quot;font-size: 14px; font-family: courier; background-color: transparent;&quot;&gt;&lt;b&gt;&amp;nbsp; &amp;nbsp; &amp;nbsp; &amp;nbsp;1: {&#39;Token&#39;: &#39;&amp;lt;/w&amp;gt;&#39;, &#39;Frequency&#39;: 23},&lt;/b&gt;&lt;/span&gt;&lt;/div&gt;&lt;div&gt;&lt;font style=&quot;font-size: 14px;&quot; face=&quot;courier&quot;&gt;&lt;b&gt;&amp;nbsp; &amp;nbsp; 2: {&#39;Token&#39;: &#39;o&#39;, &#39;Frequency&#39;: 14},&lt;/b&gt;&lt;/font&gt;&lt;/div&gt;&lt;div&gt;&lt;font style=&quot;font-size: 14px;&quot; face=&quot;courier&quot;&gt;&lt;b&gt;&amp;nbsp; &amp;nbsp; 3: {&#39;Token&#39;: &#39;l&#39;, &#39;Frequency&#39;: 14},&lt;/b&gt;&lt;/font&gt;&lt;/div&gt;&lt;div&gt;&lt;font style=&quot;font-size: 14px;&quot; face=&quot;courier&quot;&gt;&lt;b&gt;&amp;nbsp; &amp;nbsp; 4: {&#39;Token&#39;: &#39;d&#39;, &#39;Frequency&#39;: 10},&lt;/b&gt;&lt;/font&gt;&lt;/div&gt;&lt;div&gt;&lt;font style=&quot;font-size: 14px;&quot; face=&quot;courier&quot;&gt;&lt;b&gt;&amp;nbsp; &amp;nbsp; 5: {&#39;Token&#39;: &#39;e&#39;, &#39;Frequency&#39;: 16},&lt;/b&gt;&lt;/font&gt;&lt;/div&gt;&lt;div&gt;&lt;font style=&quot;font-size: 14px;&quot; face=&quot;courier&quot;&gt;&lt;b&gt;&amp;nbsp; &amp;nbsp; 6: {&#39;Token&#39;: &#39;r&#39;, &#39;Frequency&#39;: 3},&lt;/b&gt;&lt;/font&gt;&lt;/div&gt;&lt;div&gt;&lt;font style=&quot;font-size: 14px;&quot; face=&quot;courier&quot;&gt;&lt;b&gt;&amp;nbsp; &amp;nbsp; 7: {&#39;Token&#39;: &#39;f&#39;, &#39;Frequency&#39;: 9},&lt;/b&gt;&lt;/font&gt;&lt;/div&gt;&lt;div&gt;&lt;font style=&quot;font-size: 14px;&quot; face=&quot;courier&quot;&gt;&lt;b&gt;&amp;nbsp; &amp;nbsp; 8: {&#39;Token&#39;: &#39;i&#39;, &#39;Frequency&#39;: 9},&lt;/b&gt;&lt;/font&gt;&lt;/div&gt;&lt;div&gt;&lt;font style=&quot;font-size: 14px;&quot; face=&quot;courier&quot;&gt;&lt;b&gt;&amp;nbsp; &amp;nbsp; 9: {&#39;Token&#39;: &#39;n&#39;, &#39;Frequency&#39;: 9},&lt;/b&gt;&lt;/font&gt;&lt;/div&gt;&lt;div&gt;&lt;font style=&quot;font-size: 14px;&quot; face=&quot;courier&quot;&gt;&lt;b&gt;&amp;nbsp; &amp;nbsp; &amp;nbsp; 10: {&#39;Token&#39;: &#39;s&#39;, &#39;Frequency&#39;: 13},&lt;/b&gt;&lt;/font&gt;&lt;/div&gt;&lt;div&gt;&lt;font style=&quot;font-size: 14px;&quot; face=&quot;courier&quot;&gt;&lt;b&gt;&amp;nbsp; &amp;nbsp; &amp;nbsp; 11: {&#39;Token&#39;: &#39;t&#39;, &#39;Frequency&#39;: 13},&lt;/b&gt;&lt;/font&gt;&lt;/div&gt;&lt;div&gt;&lt;font style=&quot;font-size: 14px;&quot; face=&quot;courier&quot;&gt;&lt;b&gt;&amp;nbsp; &amp;nbsp; 12: {&#39;Token&#39;: &#39;w&#39;, &#39;Frequency&#39;: 4}&lt;/b&gt;&lt;/font&gt;&lt;/div&gt;&lt;div&gt;&lt;br style=&quot;color: rgb(63, 63, 63);&quot;&gt;&lt;/div&gt;" style="text;html=1;align=center;verticalAlign=middle;whiteSpace=wrap;rounded=0;" vertex="1" parent="1">
                    <mxGeometry x="360" y="2880" width="400" height="230" as="geometry"/>
                </mxCell>
                <mxCell id="164" value="&lt;font face=&quot;ZCOOL KuaiLe&quot;&gt;&lt;span style=&quot;font-size: 14px;&quot;&gt;&lt;b&gt;初始计算每个字符频数&lt;/b&gt;&lt;/span&gt;&lt;/font&gt;" style="text;html=1;align=center;verticalAlign=middle;whiteSpace=wrap;rounded=0;" vertex="1" parent="1">
                    <mxGeometry x="560" y="2850" width="140" height="30" as="geometry"/>
                </mxCell>
                <mxCell id="165" value="&lt;b&gt;&lt;font style=&quot;font-size: 14px;&quot; face=&quot;courier&quot;&gt;$$ \text{freq}(x, y) = \sum \text{count}(x, y, w) \cdot \text{freq}(w) $$&lt;/font&gt;&lt;/b&gt;" style="text;html=1;align=center;verticalAlign=middle;whiteSpace=wrap;rounded=0;" vertex="1" parent="1">
                    <mxGeometry x="881" y="2968" width="239" height="30" as="geometry"/>
                </mxCell>
                <mxCell id="166" value="&lt;font style=&quot;font-size: 14px;&quot;&gt;&lt;b&gt;$$ (x^*, y^*) = \arg\max_{(x, y)} \text{freq}(x, y) $$&lt;/b&gt;&lt;/font&gt;" style="text;html=1;align=center;verticalAlign=middle;whiteSpace=wrap;rounded=0;" vertex="1" parent="1">
                    <mxGeometry x="881" y="3015" width="207" height="30" as="geometry"/>
                </mxCell>
                <mxCell id="167" value="&lt;font style=&quot;font-size: 14px;&quot; data-font-src=&quot;https://fonts.googleapis.com/css?family=ZCOOL+KuaiLe&quot; face=&quot;ZCOOL KuaiLe&quot;&gt;&lt;b style=&quot;&quot;&gt;频数计算&lt;/b&gt;&lt;/font&gt;" style="text;html=1;align=center;verticalAlign=middle;whiteSpace=wrap;rounded=0;" vertex="1" parent="1">
                    <mxGeometry x="881" y="2938" width="60" height="30" as="geometry"/>
                </mxCell>
                <mxCell id="173" value="&lt;b&gt;&lt;font style=&quot;font-size: 14px;&quot; data-font-src=&quot;https://fonts.googleapis.com/css?family=ZCOOL+KuaiLe&quot; face=&quot;ZCOOL KuaiLe&quot;&gt;频数迭代更新词表&lt;/font&gt;&lt;/b&gt;" style="text;html=1;align=center;verticalAlign=middle;whiteSpace=wrap;rounded=0;" vertex="1" parent="1">
                    <mxGeometry x="780" y="3080" width="110" height="30" as="geometry"/>
                </mxCell>
                <mxCell id="174" value="&lt;font style=&quot;font-size: 18px;&quot; face=&quot;仿宋&quot;&gt;&lt;b&gt;BPE&lt;/b&gt;&lt;/font&gt;" style="text;html=1;align=center;verticalAlign=middle;whiteSpace=wrap;rounded=0;" vertex="1" parent="1">
                    <mxGeometry x="335" y="2670" width="63" height="30" as="geometry"/>
                </mxCell>
            </root>
        </mxGraphModel>
    </diagram>
</mxfile>